<?xml version="1.0" encoding="UTF-8" standalone="no"?>
<!DOCTYPE svg PUBLIC "-//W3C//DTD SVG 1.1//EN" "http://www.w3.org/Graphics/SVG/1.1/DTD/svg11.dtd">
<svg width="100%" height="100%" viewBox="0 0 409 341" version="1.1" xmlns="http://www.w3.org/2000/svg" xmlns:xlink="http://www.w3.org/1999/xlink" xml:space="preserve" xmlns:serif="http://www.serif.com/" style="fill-rule:evenodd;clip-rule:evenodd;stroke-linejoin:round;stroke-miterlimit:2;">
    <g transform="matrix(1,0,0,1,-1716.39,-623.945)">
        <g transform="matrix(0.165352,0.21077,-0.232846,0.18267,1819.27,340.788)">
            <path d="M1681.49,812.691C1660.79,802.736 1642.01,791.721 1625.49,779.877C1563.24,735.241 1530.19,678.33 1530.19,618.79C1530.19,559.251 1563.24,502.34 1625.49,457.703C1698.48,405.369 1815.56,369.207 1948.34,369.207C2081.12,369.207 2198.19,405.369 2271.18,457.703C2333.43,502.34 2366.49,559.251 2366.49,618.79C2366.49,678.33 2333.43,735.241 2271.18,779.877C2198.19,832.211 2081.12,868.373 1948.34,868.373C1912.77,868.373 1887.72,868.101 1854.95,863.295C1893.93,820.247 1930.04,773.912 1961.79,728.225C2036.99,727.212 2099.53,709.809 2149.17,683.712C2182.85,666.006 2209.71,645.784 2209.71,618.79C2209.71,591.796 2182.85,571.574 2149.17,553.868C2097.81,526.869 2026.63,511.124 1948.34,511.124C1870.04,511.124 1798.86,526.869 1747.51,553.868C1713.83,571.574 1686.97,591.796 1686.97,618.79C1686.97,645.784 1713.83,666.006 1747.51,683.712C1759.62,690.082 1772.84,695.826 1787,700.884C1762.42,731.035 1735.06,760.865 1705.01,790.322C1697.24,797.931 1689.4,805.389 1681.49,812.691Z" style="fill:rgb(0,136,255);"/>
        </g>
        <g transform="matrix(0.538605,0.0433806,-0.0479242,0.595017,900.86,299.536)">
            <path d="M2161.07,796.361C2100.93,819.019 2027.6,832.594 1948.34,832.594C1825.78,832.594 1717.4,800.137 1650.04,751.831C1598.38,714.797 1569.71,668.19 1569.71,618.79C1569.71,569.391 1598.38,522.784 1650.04,485.749C1717.4,437.444 1825.78,404.986 1948.34,404.986C2070.89,404.986 2179.27,437.444 2246.64,485.749C2298.29,522.784 2326.96,569.391 2326.96,618.79C2326.96,668.19 2298.29,714.797 2246.64,751.831C2241.25,755.692 2235.61,759.452 2229.71,763.101C2219.1,747.159 2206.08,731.349 2190.75,716.344C2188.55,714.195 2185.22,711.226 2181.27,707.844C2187.28,704.268 2192.99,700.543 2198.38,696.679C2229.2,674.578 2249.23,648.27 2249.23,618.79C2249.23,589.311 2229.2,563.002 2198.38,540.901C2142.05,500.515 2050.8,475.345 1948.34,475.345C1845.87,475.345 1754.62,500.515 1698.3,540.901C1667.47,563.002 1647.44,589.311 1647.44,618.79C1647.44,648.27 1667.47,674.578 1698.3,696.679C1754.62,737.066 1845.87,762.236 1948.34,762.236C2005.93,762.236 2058.34,755.275 2104.63,741.138C2110.25,744.303 2121.8,752.482 2133.68,764.107C2144.28,774.488 2153.45,785.361 2161.07,796.361Z" style="fill:rgb(0,136,255);"/>
        </g>
    </g>
</svg>