<?xml version="1.0" encoding="UTF-8" standalone="no"?>
<!DOCTYPE svg PUBLIC "-//W3C//DTD SVG 1.1//EN" "http://www.w3.org/Graphics/SVG/1.1/DTD/svg11.dtd">
<svg width="100%" height="100%" viewBox="0 0 1738 341" version="1.1" xmlns="http://www.w3.org/2000/svg" xmlns:xlink="http://www.w3.org/1999/xlink" xml:space="preserve" xmlns:serif="http://www.serif.com/" style="fill-rule:evenodd;clip-rule:evenodd;stroke-linejoin:round;stroke-miterlimit:2;">
    <g transform="matrix(1,0,0,1,-387.323,-623.945)">
        <g transform="matrix(1.3701,0,0,1.3701,-278.52,181.041)">
            <path d="M567.094,457.846C573.365,459.213 583.345,462.768 592.474,471.896C601.602,481.024 607.305,495.775 607.191,505.831C606.804,540.043 581.043,560.096 556.445,560.096L485.981,560.096L485.981,380.585L547.525,380.585C559.041,380.585 568.849,384.754 576.947,393.092C585.044,401.43 589.093,411.477 589.093,423.234C589.093,427.912 588.733,431.691 588.014,434.571C587.294,437.45 585.794,440.869 583.515,444.828C581.715,448.067 578.716,451.426 574.517,454.905C572.96,456.223 569.103,457.486 567.094,457.846ZM518.193,528.325L546.328,528.325C553.946,528.325 560.566,526.106 566.188,521.667C571.809,517.228 574.62,511.53 574.62,504.571C574.62,497.853 572.111,492.215 567.094,487.656C562.077,483.097 556.063,480.818 549.05,480.818L518.193,480.818L518.193,528.325ZM518.193,449.147L536.908,449.147C541.826,449.147 545.995,447.257 549.414,443.478C552.833,439.699 554.543,435.23 554.543,430.072C554.543,425.273 553.133,421.074 550.314,417.475C547.495,413.876 543.866,412.077 539.427,412.077L518.193,412.077L518.193,449.147Z" style="fill:#08f;fill-rule:nonzero;"/>
        </g>
        <g transform="matrix(1.28153,0,0,1.28153,-208.476,229.392)">
            <path d="M646.498,561.076L612.847,560.896L612.847,482.438C612.847,470.441 614.319,461.497 619.415,451.306C630.161,429.815 649.405,422.746 654.601,421.122C664.468,418.04 672.061,417.974 679.792,418.555L679.792,449.147C678.362,449.158 646.498,446.686 646.498,479.018L646.498,561.076Z" style="fill:#08f;fill-rule:nonzero;"/>
        </g>
        <g transform="matrix(1.28153,0,0,1.28153,-227.376,229.854)">
            <rect x="875.035" y="416.886" width="30.592" height="143.83" style="fill:#08f;fill-rule:nonzero;"/>
        </g>
        <g transform="matrix(1.28153,0,0,1.28153,185.256,228.931)">
            <rect x="875.035" y="416.886" width="30.592" height="143.83" style="fill:#08f;fill-rule:nonzero;"/>
        </g>
        <g transform="matrix(1.28153,0,0,1.28153,-302.423,229.854)">
            <path d="M875.035,546.896C863.085,555.442 848.454,560.472 832.657,560.472C792.383,560.472 759.687,527.776 759.687,487.502C759.687,447.229 792.383,414.532 832.657,414.532C848.454,414.532 863.085,419.563 875.035,428.109L875.035,416.886L905.627,416.886L905.627,560.716L875.035,560.716L875.035,546.896ZM875.035,485.223C873.849,462.859 855.315,445.064 832.657,445.064C809.234,445.064 790.218,464.08 790.218,487.502C790.218,510.925 809.234,529.941 832.657,529.941C855.315,529.941 873.849,512.146 875.035,489.782L875.035,485.223Z" style="fill:#08f;"/>
        </g>
        <g transform="matrix(1.28153,0,0,1.28153,-224.24,229.392)">
            <path d="M927.94,561.076L927.94,481.178C927.94,463.783 934.209,448.937 946.745,436.64C959.282,424.343 974.368,418.195 992.003,418.195C1009.28,418.195 1024.03,424.365 1036.27,436.706C1048.51,449.047 1054.63,463.904 1054.63,481.279L1054.63,561.076L1022.06,561.076L1022.06,480.23C1022.06,472.086 1018.91,465.169 1012.61,459.48C1006.31,453.791 998.901,450.946 990.383,450.946C982.226,450.946 975.178,453.735 969.239,459.314C963.301,464.892 960.332,471.7 960.332,479.738L960.332,561.076L927.94,561.076Z" style="fill:#08f;fill-rule:nonzero;"/>
        </g>
        <g transform="matrix(1.3701,0,0,1.3701,-322.033,178.806)">
            <path d="M1077.84,380.405L1110.23,380.405L1110.23,526.525L1169.97,526.525L1169.97,560.716L1077.84,560.716L1077.84,380.405Z" style="fill:#08f;fill-rule:nonzero;"/>
        </g>
        <g transform="matrix(1.28153,0,0,1.28153,-216.853,228.931)">
            <path d="M1240.52,561.076L1240.52,481.178C1240.52,463.783 1246.78,448.937 1259.32,436.64C1271.86,424.343 1286.94,418.195 1304.58,418.195C1321.85,418.195 1336.61,424.365 1348.85,436.706C1361.08,449.047 1367.2,463.904 1367.2,481.279L1367.2,561.076L1334.63,561.076L1334.63,480.23C1334.63,472.086 1331.48,465.169 1325.18,459.48C1318.88,453.791 1311.48,450.946 1302.96,450.946C1294.8,450.946 1287.75,453.735 1281.81,459.314C1275.88,464.892 1272.91,471.7 1272.91,479.738L1272.91,561.076L1240.52,561.076Z" style="fill:#08f;fill-rule:nonzero;"/>
        </g>
        <g transform="matrix(1.175,0,0,1.175,101.975,288.704)">
            <path d="M1272.7,484.457L1272.7,561.469L1240.52,561.469L1240.52,365.987L1272.7,365.987L1272.7,453.788C1283.97,453.788 1298.66,449.802 1298.66,435.02L1298.66,375.316L1331.05,375.316L1331.05,433.581C1331.05,448.702 1326.32,454.848 1316.84,464.274C1319.98,465.832 1322.56,467.542 1324.36,469.355C1336.6,481.696 1342.71,498.886 1342.71,516.26L1342.71,561.076L1310.14,561.076L1310.14,515.212C1310.14,492.029 1280.77,484.483 1272.7,484.457Z" style="fill:#08f;"/>
        </g>
        <g transform="matrix(1.28153,0,0,1.28153,185.256,229.854)">
            <rect x="875.035" y="416.886" width="30.592" height="143.83" style="fill:#08f;fill-rule:nonzero;"/>
        </g>
        <g transform="matrix(1.3701,0,0,1.3701,-322.033,180.191)">
            <path d="M1077.84,380.405L1110.23,380.405L1110.23,526.525L1169.97,526.525L1169.97,560.716L1077.84,560.716L1077.84,380.405Z" style="fill:#08f;fill-rule:nonzero;"/>
        </g>
        <g transform="matrix(1.28153,0,0,1.28153,-216.853,229.392)">
            <path d="M1240.52,561.076L1240.52,481.178C1240.52,463.783 1246.78,448.937 1259.32,436.64C1271.86,424.343 1286.94,418.195 1304.58,418.195C1321.85,418.195 1336.61,424.365 1348.85,436.706C1361.08,449.047 1367.2,463.904 1367.2,481.279L1367.2,561.076L1334.63,561.076L1334.63,480.23C1334.63,472.086 1331.48,465.169 1325.18,459.48C1318.88,453.791 1311.48,450.946 1302.96,450.946C1294.8,450.946 1287.75,453.735 1281.81,459.314C1275.88,464.892 1272.91,471.7 1272.91,479.738L1272.91,561.076L1240.52,561.076Z" style="fill:#08f;fill-rule:nonzero;"/>
        </g>
        <g transform="matrix(1.175,0,0,1.175,101.975,288.704)">
            <path d="M1272.7,484.457L1272.7,561.469L1240.52,561.469L1240.52,365.987L1272.7,365.987L1272.7,453.788C1283.97,453.788 1298.66,449.802 1298.66,435.02L1298.66,375.316L1331.05,375.316L1331.05,433.581C1331.05,448.702 1326.32,454.848 1316.84,464.274C1319.98,465.832 1322.56,467.542 1324.36,469.355C1336.6,481.696 1342.71,498.886 1342.71,516.26L1342.71,561.076L1310.14,561.076L1310.14,515.212C1310.14,492.029 1280.77,484.483 1272.7,484.457Z" style="fill:#08f;"/>
        </g>
        <g transform="matrix(0.165352,0.21077,-0.232846,0.18267,1819.27,340.788)">
            <path d="M1681.49,812.691C1660.79,802.736 1642.01,791.721 1625.49,779.877C1563.24,735.241 1530.19,678.33 1530.19,618.79C1530.19,559.251 1563.24,502.34 1625.49,457.703C1698.48,405.369 1815.56,369.207 1948.34,369.207C2081.12,369.207 2198.19,405.369 2271.18,457.703C2333.43,502.34 2366.49,559.251 2366.49,618.79C2366.49,678.33 2333.43,735.241 2271.18,779.877C2198.19,832.211 2081.12,868.373 1948.34,868.373C1912.77,868.373 1887.72,868.101 1854.95,863.295C1893.93,820.247 1930.04,773.912 1961.79,728.225C2036.99,727.212 2099.53,709.809 2149.17,683.712C2182.85,666.006 2209.71,645.784 2209.71,618.79C2209.71,591.796 2182.85,571.574 2149.17,553.868C2097.81,526.869 2026.63,511.124 1948.34,511.124C1870.04,511.124 1798.86,526.869 1747.51,553.868C1713.83,571.574 1686.97,591.796 1686.97,618.79C1686.97,645.784 1713.83,666.006 1747.51,683.712C1759.62,690.082 1772.84,695.826 1787,700.884C1762.42,731.035 1735.06,760.865 1705.01,790.322C1697.24,797.931 1689.4,805.389 1681.49,812.691Z" style="fill:#08f;"/>
        </g>
        <g transform="matrix(0.538605,0.0433806,-0.0479242,0.595017,900.86,299.536)">
            <path d="M2161.07,796.361C2100.93,819.019 2027.6,832.594 1948.34,832.594C1825.78,832.594 1717.4,800.137 1650.04,751.831C1598.38,714.797 1569.71,668.19 1569.71,618.79C1569.71,569.391 1598.38,522.784 1650.04,485.749C1717.4,437.444 1825.78,404.986 1948.34,404.986C2070.89,404.986 2179.27,437.444 2246.64,485.749C2298.29,522.784 2326.96,569.391 2326.96,618.79C2326.96,668.19 2298.29,714.797 2246.64,751.831C2241.25,755.692 2235.61,759.452 2229.71,763.101C2219.1,747.159 2206.08,731.349 2190.75,716.344C2188.55,714.195 2185.22,711.226 2181.27,707.844C2187.28,704.268 2192.99,700.543 2198.38,696.679C2229.2,674.578 2249.23,648.27 2249.23,618.79C2249.23,589.311 2229.2,563.002 2198.38,540.901C2142.05,500.515 2050.8,475.345 1948.34,475.345C1845.87,475.345 1754.62,500.515 1698.3,540.901C1667.47,563.002 1647.44,589.311 1647.44,618.79C1647.44,648.27 1667.47,674.578 1698.3,696.679C1754.62,737.066 1845.87,762.236 1948.34,762.236C2005.93,762.236 2058.34,755.275 2104.63,741.138C2110.25,744.303 2121.8,752.482 2133.68,764.107C2144.28,774.488 2153.45,785.361 2161.07,796.361Z" style="fill:#08f;"/>
        </g>
    </g>
</svg>